<svg width="187" height="188" viewBox="0 0 187 188" fill="none" xmlns="http://www.w3.org/2000/svg">
<path d="M159.852 27.304C145.752 13.204 130.69 22.33 121.264 31.756L32.22 120.803C22.794 130.228 12.928 144.549 27.768 159.387C42.608 174.23 56.929 164.362 66.353 154.936L155.399 65.891C164.825 56.464 173.951 41.402 159.852 27.304Z" fill="white"/>
<path d="M74.78 23.657L93.635 42.511L112.827 23.319C114.13 22.013 115.453 20.801 116.784 19.658C114.774 9.518 108.988 0.350998 93.626 0.350998C78.235 0.350998 72.456 9.554 70.457 19.716C71.894 20.959 73.328 22.205 74.78 23.657Z" fill="white"/>
<path d="M112.816 163.71L93.636 144.529L74.791 163.372C73.36 164.804 71.936 166.112 70.518 167.341C72.679 177.678 78.795 187.146 93.628 187.146C108.5 187.146 114.608 177.627 116.755 167.257C115.436 166.122 114.116 165.009 112.816 163.71Z" fill="white"/>
<path d="M66.783 69.364H30.433C17.105 69.364 0 73.563 0 93.501C0 108.378 9.522 114.487 19.894 116.633C21.122 115.215 66.783 69.364 66.783 69.364Z" fill="white"/>
<path d="M167.435 70.332C166.285 71.67 120.528 117.637 120.528 117.637H156.362C169.691 117.637 186.795 114.488 186.795 93.501C186.795 78.112 177.595 72.33 167.435 70.332Z" fill="white"/>
<path d="M78.693 57.432L85.187 50.938L66.344 32.092C56.917 22.667 42.598 12.8 27.758 27.64C16.876 38.522 19.293 49.113 25.065 57.711C26.823 57.581 78.693 57.432 78.693 57.432Z" fill="white"/>
<path d="M108.571 129.569L102.06 136.08L121.254 155.272C130.68 164.699 145.742 173.823 159.84 159.725C170.36 149.204 167.946 138.154 162.13 129.302C160.258 129.437 108.571 129.569 108.571 129.569Z" fill="white"/>
</svg>
